<svg width="48" height="50" viewBox="0 0 48 50" fill="none" xmlns="http://www.w3.org/2000/svg">
<path d="M16.2947 46.9425L1.06506 39.8408L-0.000357143 42.1256L15.2292 49.2273L16.2947 46.9425Z" fill="#E44044"/>
<path d="M17.4946 24.6349L2.26501 17.5332L1.19959 19.818L16.4292 26.9197L17.4946 24.6349Z" fill="#E44044"/>
<path d="M2.521 42.0002L2.521 17.5332H-3.8147e-06L-3.8147e-06 42.0002H2.521Z" fill="#E44044"/>
<path d="M17.495 49.2282V24.7612H14.974L14.974 49.2282H17.495Z" fill="#E44044"/>
<path d="M17.3004 49.2277L32.53 42.126L31.4646 39.8412L16.235 46.9429L17.3004 49.2277Z" fill="#E44044"/>
<path d="M17.3007 26.9187L19.764 25.77L18.6986 23.4852L16.2353 24.6339L17.3007 26.9187Z" fill="#E44044"/>
<path d="M32.53 42.0002H30.009V17.9702L30.94 17.5332H32.53V42.0002Z" fill="#E44044"/>
<path d="M46.501 26.9182L31.27 19.8172L32.335 17.5322L47.335 24.5322V25.0712H47.362L46.5 26.9212L46.501 26.9182Z" fill="#E44044"/>
<path d="M45.15 48.3258H44.57L31.27 42.1258L32.335 39.8408L46.112 46.2648L45.151 48.3248L45.15 48.3258Z" fill="#E44044"/>
<path d="M26.4382 22.6578L32.166 19.9868L31.0216 17.5325L25.2937 20.2035L26.4382 22.6578Z" fill="#E44044"/>
<path d="M24.3821 36.161L24.3821 0.770996L21.8611 0.770996L21.8611 36.161H24.3821Z" fill="#E44044"/>
<path d="M39.5271 11.7379L32.7491 7.11494L39.5271 2.49494H28.1701V11.7379H39.5271ZM44.9751 13.4179H26.4901V0.814941H44.9751L35.7321 7.11494L44.9751 13.4179Z" fill="#E44044"/>
<path d="M47.3711 48.4001H44.8501V25.0301L45.7811 24.6001H47.3711V48.3941V48.4001Z" fill="#E44044"/>
</svg>
